<?xml version="1.0" encoding="utf-8"?>
<!-- Generator: Adobe Illustrator 22.0.1, SVG Export Plug-In . SVG Version: 6.00 Build 0)  -->
<svg version="1.1" id="图层_1" xmlns="http://www.w3.org/2000/svg" xmlns:xlink="http://www.w3.org/1999/xlink" x="0px" y="0px"
	 viewBox="0 0 140 31" style="enable-background:new 0 0 140 31;" xml:space="preserve">
<style type="text/css">
	.st0{filter:url(#Adobe_OpacityMaskFilter);}
	.st1{fill:#FFFFFF;}
	.st2{mask:url(#mask-2_1_);fill:#6785FF;}
	.st3{font-family:'STXinwei';}
	.st4{font-size:19.6497px;}
</style>
<title>Group 22</title>
<desc>Created with Sketch.</desc>
<g id="Symbols">
	<g id="Menu--alt" transform="translate(-150.000000, -20.000000)">
		<g id="Menu">
			<g id="Group-22" transform="translate(150.000000, 20.000000)">
				<g id="Group-21" transform="translate(0.000000, 0.018585)">
					<g id="Clip-20">
					</g>
					<defs>
						<filter id="Adobe_OpacityMaskFilter" filterUnits="userSpaceOnUse" x="0" y="0" width="31.5" height="30.3">
							<feColorMatrix  type="matrix" values="1 0 0 0 0  0 1 0 0 0  0 0 1 0 0  0 0 0 1 0"/>
						</filter>
					</defs>
					<mask maskUnits="userSpaceOnUse" x="0" y="0" width="31.5" height="30.3" id="mask-2_1_">
						<g class="st0">
							<polygon id="path-1_1_" class="st1" points="0,0 31.5,0 31.5,30.3 0,30.3 							"/>
						</g>
					</mask>
					<path id="Fill-19" class="st2" d="M21.7,30.3c-0.4,0-0.8-0.1-1.2-0.3c-0.8-0.4-1.3-1.3-1.3-2.2l0-10.9c0,0,0,0,0,0l-8.4-8.3
						l-8.1,5.2c-0.1,0.1-0.2,0.2-0.2,0.3l0,9.9c0,0.3,0.2,0.4,0.3,0.5c0.1,0.1,0.3,0.1,0.6,0l6.4-4.1c0,0,0,0,0,0l0-7.5
						c0-0.7,0.6-1.2,1.2-1.2c0.7,0,1.2,0.5,1.2,1.2l0,7.5c0,0.8-0.4,1.6-1.1,2.1l-6.4,4.1c-0.9,0.6-2.1,0.6-3.1,0.1
						C0.6,26.1,0,25.1,0,24l0-9.9c0-1,0.5-1.8,1.3-2.4l8.1-5.2c1-0.6,2.2-0.5,3,0.3l8.5,8.4c0.5,0.5,0.7,1.1,0.7,1.8l0,10.9
						c0,0,0,0,0,0.1c0,0,0.1,0,0.1,0l7.2-4.6c0.1,0,0.1-0.1,0.1-0.2l0-12.5c0,0,0-0.1-0.1-0.1l-8.6-7.9c-0.1-0.1-0.3-0.1-0.5,0
						l-4.7,3.1c-0.6,0.4-1.3,0.2-1.7-0.3c-0.4-0.6-0.2-1.3,0.4-1.7l4.7-3.1c1.1-0.7,2.5-0.6,3.5,0.3l8.6,7.9
						c0.5,0.5,0.8,1.2,0.8,1.9l0,12.5c0,0.9-0.5,1.8-1.2,2.3l-7.2,4.6C22.7,30.2,22.2,30.3,21.7,30.3"/>
				</g>
			</g>
		</g>
	</g>
</g>
<text transform="matrix(1.0237 0 0 1 35.9992 22.0534)" class="st3 st4">AntMoving</text>
</svg>
